<svg width="68" height="68" viewBox="0 0 68 68" fill="none" xmlns="http://www.w3.org/2000/svg">
<path d="M5.6665 34.9917H22.0998C26.4348 34.9917 29.4099 38.2784 29.4099 42.3017V51.4252C29.4099 55.4485 26.4348 58.735 22.0998 58.735H12.9766C8.95322 58.735 5.6665 55.4485 5.6665 51.4252V34.9917" stroke="#52B5EA" stroke-width="4.5" stroke-linecap="round" stroke-linejoin="round"/>
<path d="M5.6665 34.9916C5.6665 17.85 8.86825 15.0168 18.5016 9.29346" stroke="#52B5EA" stroke-width="4.5" stroke-linecap="round" stroke-linejoin="round"/>
<path d="M38.6182 34.9917H55.0515C59.3865 34.9917 62.3615 38.2784 62.3615 42.3017V51.4252C62.3615 55.4485 59.3865 58.735 55.0515 58.735H45.9282C41.9049 58.735 38.6182 55.4485 38.6182 51.4252V34.9917" stroke="#52B5EA" stroke-width="4.5" stroke-linecap="round" stroke-linejoin="round"/>
<path d="M38.6182 34.9916C38.6182 17.85 41.8197 15.0168 51.4531 9.29346" stroke="#52B5EA" stroke-width="4.5" stroke-linecap="round" stroke-linejoin="round"/>
</svg>
